# xmcd
#
# Track frame offsets:
# 150
# 11927
# 25354
# 39831
# 50333
# 64435
# 76887
# 95189
# 108391
# 119868
# 133370
# 149797
# 166749
# 180626
# 192478
# 207405
# 221507
# 233209
# 252486
# 266438
#
# Disc length: 3747 seconds
#
#
# Revision: 2
# Processed by: cddbd v1.5.1PL0 Copyright (c) Steve Scherf et al.
# Submitted via: FreeRIP 2.941 
#
DISCID=3c0ea114
DTITLE=Slim Dusty - The Later Years (1980 - 1995) 
DYEAR=1996
DGENRE=Country
TTITLE0=Duncan
TTITLE1=Leave Him In The Longyard
TTITLE2=Plains Of Peppermint
TTITLE3=Country Revival
TTITLE4=G'Day Blue
TTITLE5=Nulla Creek
TTITLE6=Last Thing To Learn
TTITLE7=Old Time Country Halls
TTITLE8=Singer From Down Under
TTITLE9=Bible Of The Bush
TTITLE10=Regal Zonophone
TTITLE11=Drovin'
TTITLE12=Crying On Each Other's Shoulder
TTITLE13=That's The Song We're Singing
TTITLE14=Jack O'Hagan
TTITLE15=Charleville
TTITLE16=Ringer From The Top End
TTITLE17=When Your Pants Begin to Go
TTITLE18=Me And Matilda
TTITLE19=Who Wants Moss
EXTD=
EXTT0=
EXTT1=
EXTT2=
EXTT3=
EXTT4=
EXTT5=
EXTT6=
EXTT7=
EXTT8=
EXTT9=
EXTT10=
EXTT11=
EXTT12=
EXTT13=
EXTT14=
EXTT15=
EXTT16=
EXTT17=
EXTT18=
EXTT19=
PLAYORDER=
